<svg xmlns="http://www.w3.org/2000/svg" aria-hidden="true" style="position:absolute;width:0;height:0;overflow:hidden">
  <defs>
    <symbol id="icon-Map-1" viewBox="0 0 32 32">
      <path d="M31.634.226A.991.991 0 0 1 32 1v28a.999.999 0 0 1-.804.98l-10 2a.995.995 0 0 1-.392 0L11 30.02l-9.804 1.96a.995.995 0 0 1-1.1-.552A1.003 1.003 0 0 1 0 31V3a.999.999 0 0 1 .804-.98l10-2a.995.995 0 0 1 .392 0L21 1.98 30.804.02a.996.996 0 0 1 .83.206zM20 3.82l-8-1.6v25.96l8 1.6V3.82zm2 25.96 8-1.6V2.22l-8 1.6v25.96zm-12-1.6V2.22l-8 1.6v25.96l8-1.6z"/>
    </symbol>
    <symbol id="icon-fuel-pump-1" viewBox="0 0 32 32">
      <path d="M6 5a.997.997 0 0 1 1-1h10a.997.997 0 0 1 1 1v10a.997.997 0 0 1-1 1H7a.997.997 0 0 1-1-1V5z"/>
      <path d="M2 4a4.003 4.003 0 0 1 4-4h12a4.003 4.003 0 0 1 4 4v16a4.003 4.003 0 0 1 4 4v1a.997.997 0 0 0 1 1 .997.997 0 0 0 1-1v-9h-1a.997.997 0 0 1-1-1V8.75a.997.997 0 0 1 1-1h2.99c-.022-.952-.106-1.788-.402-2.444a1.944 1.944 0 0 0-.788-.916C28.432 4.17 27.872 4 27 4a.997.997 0 0 1-1-1 .997.997 0 0 1 1-1c1.128-.003 2.069.221 2.824.672.766.456 1.268 1.102 1.588 1.814.59 1.31.588 2.93.588 4.162v6.35c0 .132-.025.262-.076.383s-.124.232-.217.325a.991.991 0 0 1-.708.293h-1v9a3.004 3.004 0 0 1-3 3 2.998 2.998 0 0 1-3-3v-1a2 2 0 0 0-2-2v8h1a.997.997 0 0 1 1 1 .997.997 0 0 1-1 1h-22a.997.997 0 0 1-1-1 .997.997 0 0 1 1-1h1v-26zm18 0a2 2 0 0 0-2-2H6a2 2 0 0 0-2 2v26h16V4z"/>
    </symbol>
    <symbol id="icon-ui-radios" viewBox="0 0 32 32">
      <path d="M14 5a.997.997 0 0 1 1-1h14a.997.997 0 0 1 1 1v2a.997.997 0 0 1-1 1H15a.997.997 0 0 1-1-1V5zM0 24a5.996 5.996 0 0 1 6-6 6.002 6.002 0 0 1 4.243 10.243A6 6 0 0 1 0 24zm14-3a.997.997 0 0 1 1-1h14a.997.997 0 0 1 1 1v2a.997.997 0 0 1-1 1H15a.997.997 0 0 1-1-1v-2zm0-10a.997.997 0 0 1 1-1h10a.997.997 0 0 1 1 1 .997.997 0 0 1-1 1H15a.997.997 0 0 1-1-1zm0 16a.997.997 0 0 1 1-1h10a.997.997 0 0 1 1 1 .997.997 0 0 1-1 1H15a.997.997 0 0 1-1-1zM6 2a5.99 5.99 0 0 0-4.243 1.758A6.01 6.01 0 0 0-.001 8.001a5.99 5.99 0 0 0 1.758 4.243A6.01 6.01 0 0 0 6 14.002a5.996 5.996 0 0 0 6-6 5.996 5.996 0 0 0-6-6zm0 9a3.004 3.004 0 0 1-3-3 3.004 3.004 0 0 1 3-3 3.004 3.004 0 0 1 3 3 3.004 3.004 0 0 1-3 3z"/>
    </symbol>
    <symbol id="icon-Star-Pressed-1" viewBox="0 0 32 32">
      <path fill="#ffc531" d="M15.116 1.676a1 1 0 0 1 1.769 0l3.777 7.158c.145.274.408.466.714.519l7.975 1.38a1 1 0 0 1 .547 1.682l-5.641 5.804a1 1 0 0 0-.273.839l1.152 8.01a1 1 0 0 1-1.431 1.04l-7.263-3.571a.998.998 0 0 0-.882 0l-7.262 3.571a1 1 0 0 1-1.431-1.04l1.152-8.01a1 1 0 0 0-.273-.839l-5.64-5.804a1 1 0 0 1 .547-1.682l7.974-1.38a.998.998 0 0 0 .714-.519l3.776-7.158z" style="fill:var(--color1, #ffc531)"/>
    </symbol>
    <symbol id="icon-Heart-1pressed" viewBox="0 0 32 32">
      <path fill="#e44848" d="m16 13.139-1.788-3.578c-.444-.886-1.214-2.16-2.304-3.19C10.836 5.357 9.552 4.667 8 4.667c-3.352 0-6 2.652-6 5.84 0 2.422 1.108 4.132 3.736 6.74.674.668 1.442 1.39 2.292 2.186C10.244 21.513 13 24.101 16 27.561c3-3.46 5.756-6.048 7.972-8.128.85-.796 1.62-1.52 2.292-2.186C28.892 14.639 30 12.929 30 10.507c0-3.188-2.648-5.84-6-5.84-1.554 0-2.836.69-3.908 1.704-1.09 1.03-1.86 2.304-2.304 3.19L16 13.139zm.784 16.584a1.022 1.022 0 0 1-1.216.269 1.04 1.04 0 0 1-.352-.269c-3.202-3.804-6.1-6.524-8.486-8.762C2.6 17.083 0 14.645 0 10.507c0-4.33 3.58-7.84 8-7.84 3.2 0 5.438 2.1 6.808 4.016.52.73.916 1.432 1.192 1.984.346-.691.745-1.354 1.192-1.984C18.562 4.765 20.8 2.667 24 2.667c4.42 0 8 3.51 8 7.84 0 4.138-2.6 6.576-6.73 10.454-2.386 2.24-5.284 4.962-8.486 8.762z" style="fill:var(--color2, #e44848)"/>
    </symbol>
    <symbol id="icon-Star-1Default-1" viewBox="0 0 32 32">
      <path fill="#f2f4f7" d="M15.116 1.676a1 1 0 0 1 1.769 0l3.777 7.158c.145.274.408.466.714.519l7.975 1.38a1 1 0 0 1 .547 1.682l-5.641 5.804a1 1 0 0 0-.273.839l1.152 8.01a1 1 0 0 1-1.431 1.04l-7.263-3.571a.998.998 0 0 0-.882 0l-7.262 3.571a1 1 0 0 1-1.431-1.04l1.152-8.01a1 1 0 0 0-.273-.839l-5.64-5.804a1 1 0 0 1 .547-1.682l7.974-1.38a.998.998 0 0 0 .714-.519l3.776-7.158z" style="fill:var(--color3, #f2f4f7)"/>
    </symbol>
    <symbol id="icon-Heart-1Default" viewBox="0 0 32 32">
      <path d="m16 13.139-1.788-3.578c-.444-.886-1.214-2.16-2.304-3.19C10.836 5.357 9.552 4.667 8 4.667c-3.352 0-6 2.652-6 5.84 0 2.422 1.108 4.132 3.736 6.74.674.668 1.442 1.39 2.292 2.186C10.244 21.513 13 24.101 16 27.561c3-3.46 5.756-6.048 7.972-8.128.85-.796 1.62-1.52 2.292-2.186C28.892 14.639 30 12.929 30 10.507c0-3.188-2.648-5.84-6-5.84-1.554 0-2.836.69-3.908 1.704-1.09 1.03-1.86 2.304-2.304 3.19L16 13.139zm.784 16.584a1.022 1.022 0 0 1-1.216.269 1.04 1.04 0 0 1-.352-.269c-3.202-3.804-6.1-6.524-8.486-8.762C2.6 17.083 0 14.645 0 10.507c0-4.33 3.58-7.84 8-7.84 3.2 0 5.438 2.1 6.808 4.016.52.73.916 1.432 1.192 1.984.346-.691.745-1.354 1.192-1.984C18.562 4.765 20.8 2.667 24 2.667c4.42 0 8 3.51 8 7.84 0 4.138-2.6 6.576-6.73 10.454-2.386 2.24-5.284 4.962-8.486 8.762z"/>
    </symbol>
    <symbol id="icon-ion_water-outline" viewBox="0 0 32 32">
      <path stroke-miterlimit="10" stroke-width="2" d="M25 20c0 5.523-3.477 9-9 9s-9-3.477-9-9c0-5.927 6.452-13.928 8.431-16.242a.763.763 0 0 1 .57-.263.744.744 0 0 1 .57.263c1.978 2.314 8.43 10.316 8.43 16.242z"/>
      <path stroke-linecap="round" stroke-linejoin="round" stroke-width="2" d="M21.5 20.5A4.499 4.499 0 0 1 17 25"/>
    </symbol>
    <symbol id="icon-gas" viewBox="0 0 32 32">
      <path stroke-linecap="round" stroke-linejoin="round" stroke-width="2.56" d="M7.467 25.956h5.689m11.377.012v-.013M1.778 7.467c0-4.708.981-5.689 5.689-5.689h17.067c4.708 0 5.689.981 5.689 5.689v17.067c0 4.708-.981 5.689-5.689 5.689H7.467c-4.708 0-5.689-.981-5.689-5.689V7.467z"/>
      <path stroke-linecap="round" stroke-linejoin="round" stroke-width="2.56" d="M16 18.844a5.689 5.689 0 1 0 0-11.378 5.689 5.689 0 0 0 0 11.378zM20.978 13.156h2.133M16 18.133v2.133m-4.978-7.11H8.889M16 8.178V6.045"/>
    </symbol>
    <symbol id="icon-micro" viewBox="0 0 32 32">
      <path stroke-linecap="round" stroke-linejoin="round" stroke-width="2.133" d="M27.378 4.089H4.622a2.844 2.844 0 0 0-2.844 2.844v15.644a2.844 2.844 0 0 0 2.844 2.844h22.756a2.844 2.844 0 0 0 2.844-2.844V6.933a2.844 2.844 0 0 0-2.844-2.844z"/>
      <path stroke-linecap="round" stroke-linejoin="round" stroke-width="2.133" d="M17.422 9.778H8.889c-.785 0-1.422.637-1.422 1.422v7.111c0 .785.637 1.422 1.422 1.422h8.533c.785 0 1.422-.637 1.422-1.422V11.2c0-.785-.637-1.422-1.422-1.422zM24.533 9.778v9.956M7.467 25.422v2.844m17.066-2.844v2.844"/>
    </symbol>
    <symbol id="icon-refrig" viewBox="0 0 32 32">
      <path d="M16.08.711h-.159c-2.614 0-4.685 0-6.305.218-1.667.225-3.017.697-4.082 1.761C4.47 3.755 3.998 5.105 3.773 6.772c-.218 1.621-.218 3.691-.218 6.305v4.426c0 2.614 0 4.685.218 6.305.225 1.667.697 3.017 1.761 4.082.654.653 1.414 1.082 2.288 1.37v.964c0 .589.478 1.067 1.067 1.067h1.422a1.066 1.066 0 0 0 1.066-1.066v-.421c1.29.065 2.795.065 4.543.065h.159c1.749 0 3.253 0 4.543-.065v.421c0 .589.478 1.067 1.067 1.067h1.422a1.066 1.066 0 0 0 1.066-1.066v-.964c.875-.287 1.636-.717 2.288-1.37 1.064-1.065 1.536-2.415 1.761-4.082.218-1.621.218-3.691.218-6.305V13.08c0-2.614 0-4.685-.218-6.305-.225-1.667-.697-3.017-1.761-4.082C25.4 1.629 24.05 1.157 22.383.932 20.762.714 18.692.714 16.078.714zM7.043 4.198c.602-.602 1.426-.963 2.857-1.155 1.462-.196 3.388-.199 6.1-.199s4.639.003 6.101.199c1.429.192 2.254.553 2.856 1.155s.963 1.426 1.155 2.857c.196 1.462.199 3.388.199 6.1v1.067H5.689v-1.067c0-2.712.003-4.638.199-6.101.192-1.429.553-2.254 1.155-2.856zM5.689 16.356h20.622v1.067c0 2.712-.003 4.639-.199 6.101-.192 1.429-.553 2.254-1.155 2.856s-1.426.963-2.857 1.155c-1.462.196-3.388.199-6.1.199s-4.638-.003-6.101-.199c-1.429-.192-2.254-.553-2.856-1.155s-.963-1.426-1.155-2.857c-.196-1.461-.199-3.388-.199-6.1v-1.067z"/>
    </symbol>
    <symbol id="icon-alcove" viewBox="0 0 32 32">
      <path d="M6.857 2.286v4.571H2.286V2.286h4.571zm2.286 27.428v-4.571a2.287 2.287 0 0 0-2.285-2.285H2.287a2.287 2.287 0 0 0-2.285 2.285v4.571a2.287 2.287 0 0 0 2.285 2.285h4.571a2.287 2.287 0 0 0 2.285-2.285zm0-11.428v-4.571a2.287 2.287 0 0 0-2.285-2.285H2.287a2.287 2.287 0 0 0-2.285 2.285v4.571a2.287 2.287 0 0 0 2.285 2.285h4.571a2.287 2.287 0 0 0 2.285-2.285zm0-11.429V2.286A2.287 2.287 0 0 0 6.858.001H2.287A2.287 2.287 0 0 0 .002 2.286v4.571a2.287 2.287 0 0 0 2.285 2.285h4.571a2.287 2.287 0 0 0 2.285-2.285zm11.428 22.857v-4.571a2.287 2.287 0 0 0-2.285-2.285h-4.571a2.287 2.287 0 0 0-2.285 2.285v4.571a2.287 2.287 0 0 0 2.285 2.285h4.571a2.287 2.287 0 0 0 2.285-2.285zm0-11.428v-4.571a2.287 2.287 0 0 0-2.285-2.285h-4.571a2.287 2.287 0 0 0-2.285 2.285v4.571a2.287 2.287 0 0 0 2.285 2.285h4.571a2.287 2.287 0 0 0 2.285-2.285zm0-11.429V2.286A2.287 2.287 0 0 0 18.286.001h-4.571a2.287 2.287 0 0 0-2.285 2.285v4.571a2.287 2.287 0 0 0 2.285 2.285h4.571a2.287 2.287 0 0 0 2.285-2.285zm-2.285-4.571v4.571h-4.571V2.286h4.571zm11.428 0v4.571h-4.571V2.286h4.571zM6.857 13.714v4.571H2.286v-4.571h4.571zm11.429 0v4.571h-4.571v-4.571h4.571zm11.428 0h-4.571v4.571h4.571v-4.571zM6.857 25.143v4.571H2.286v-4.571h4.571zm11.429 0v4.571h-4.571v-4.571h4.571zm11.428 0v4.571h-4.571v-4.571h4.571zM25.143 0a2.287 2.287 0 0 0-2.285 2.285v4.571a2.287 2.287 0 0 0 2.285 2.285h4.571a2.287 2.287 0 0 0 2.285-2.285V2.285A2.287 2.287 0 0 0 29.714 0h-4.571zm-2.286 13.714a2.287 2.287 0 0 1 2.285-2.285h4.571a2.287 2.287 0 0 1 2.285 2.285v4.571a2.287 2.287 0 0 1-2.285 2.285h-4.571a2.287 2.287 0 0 1-2.285-2.285v-4.571zm2.286 9.143a2.287 2.287 0 0 0-2.285 2.285v4.571a2.287 2.287 0 0 0 2.285 2.285h4.571a2.287 2.287 0 0 0 2.285-2.285v-4.571a2.287 2.287 0 0 0-2.285-2.285h-4.571z"/>
    </symbol>
    <symbol id="icon-fully" viewBox="0 0 32 32">
      <path d="M0 3.429A3.428 3.428 0 0 1 3.428.001h6.857a3.428 3.428 0 0 1 3.428 3.428v6.857a3.428 3.428 0 0 1-3.428 3.428H3.428A3.428 3.428 0 0 1 0 10.286V3.429zm3.429-1.143a1.14 1.14 0 0 0-1.143 1.143v6.857a1.14 1.14 0 0 0 1.143 1.143h6.857a1.14 1.14 0 0 0 1.143-1.143V3.429a1.14 1.14 0 0 0-1.143-1.143H3.429zm14.857 1.143A3.428 3.428 0 0 1 21.714.001h6.857a3.428 3.428 0 0 1 3.428 3.428v6.857a3.428 3.428 0 0 1-3.428 3.428h-6.857a3.428 3.428 0 0 1-3.428-3.428V3.429zm3.428-1.143a1.14 1.14 0 0 0-1.143 1.143v6.857a1.14 1.14 0 0 0 1.143 1.143h6.857a1.14 1.14 0 0 0 1.143-1.143V3.429a1.14 1.14 0 0 0-1.143-1.143h-6.857zM0 21.714a3.428 3.428 0 0 1 3.428-3.428h6.857a3.428 3.428 0 0 1 3.428 3.428v6.857a3.428 3.428 0 0 1-3.428 3.428H3.428A3.428 3.428 0 0 1 0 28.571v-6.857zm3.429-1.143a1.14 1.14 0 0 0-1.143 1.143v6.857a1.14 1.14 0 0 0 1.143 1.143h6.857a1.14 1.14 0 0 0 1.143-1.143v-6.857a1.14 1.14 0 0 0-1.143-1.143H3.429zm14.857 1.143a3.428 3.428 0 0 1 3.428-3.428h6.857a3.428 3.428 0 0 1 3.428 3.428v6.857a3.428 3.428 0 0 1-3.428 3.428h-6.857a3.428 3.428 0 0 1-3.428-3.428v-6.857zm3.428-1.143a1.14 1.14 0 0 0-1.143 1.143v6.857a1.14 1.14 0 0 0 1.143 1.143h6.857a1.14 1.14 0 0 0 1.143-1.143v-6.857a1.14 1.14 0 0 0-1.143-1.143h-6.857z"/>
    </symbol>
    <symbol id="icon-van" viewBox="0 0 32 32">
      <path d="M12 2H2v28h10V2zm18 0H20v10h10V2zm0 18v10H20V20h10zM0 2a2 2 0 0 1 2-2h10a2 2 0 0 1 2 2v28a2 2 0 0 1-2 2H2a2 2 0 0 1-2-2V2zm18 0a2 2 0 0 1 2-2h10a2 2 0 0 1 2 2v10a2 2 0 0 1-2 2H20a2 2 0 0 1-2-2V2zm2 16a2 2 0 0 0-2 2v10a2 2 0 0 0 2 2h10a2 2 0 0 0 2-2V20a2 2 0 0 0-2-2H20z"/>
    </symbol>
    <symbol id="icon-shower" viewBox="0 0 32 32">
      <path d="M7.226 28.387a1.548 1.548 0 0 1-3.068.301 1.55 1.55 0 1 1 3.067-.303zm2.58-5.677a1.548 1.548 0 0 0-.301 3.068 1.549 1.549 0 1 0 .303-3.066zm-8.258 0a1.548 1.548 0 0 0-.301 3.068 1.549 1.549 0 1 0 .302-3.066zm4.129-4.129a1.548 1.548 0 0 0-.301 3.068 1.549 1.549 0 1 0 .302-3.066zM32 3.097a1.035 1.035 0 0 1-1.032 1.032h-3.702l-3.593 3.595-2.795 16.36a2.07 2.07 0 0 1-2.523 1.663 2.062 2.062 0 0 1-.973-.546L4.737 12.556A2.062 2.062 0 0 1 5.858 9.06l16.354-2.796 3.897-3.897a1.037 1.037 0 0 1 .73-.302h4.129A1.029 1.029 0 0 1 32 3.097zM21.447 8.489 6.194 11.097l12.645 12.645 2.608-15.253z"/>
    </symbol>
    <symbol id="icon-coffy" viewBox="0 0 32 32">
      <path d="M1 12a1.007 1.007 0 0 0-.779.374.997.997 0 0 0-.197.842l3.304 14.868A4.998 4.998 0 0 0 8.208 32h11.584a4.996 4.996 0 0 0 4.88-3.916l.262-1.18a6 6 0 0 0 2.601-11.708l.442-1.98A1.003 1.003 0 0 0 27.001 12h-26zm25 13a4.05 4.05 0 0 1-.632-.05l1.734-7.796A4.002 4.002 0 0 1 26 25zM5.28 27.65 2.246 14h23.508L22.72 27.65A2.995 2.995 0 0 1 19.792 30H8.208a2.998 2.998 0 0 1-2.928-2.35zM8.8 1.6l-.006.008-.028.038c-.146.2-.282.407-.408.62a4.003 4.003 0 0 0-.282.534c-.052.12-.068.184-.074.206v.008c.023.177.085.346.182.496.15.266.356.544.616.89l.02.024c.236.316.52.694.74 1.086.224.4.44.91.44 1.49 0 .376-.13.736-.238.988a6.142 6.142 0 0 1-.404.776 10.2 10.2 0 0 1-.506.764l-.036.05-.01.016-.004.004a1.004 1.004 0 0 1-1.4.202A1 1 0 0 1 7.2 8.4l.006-.008.028-.038c.146-.2.282-.407.408-.62.107-.171.202-.349.282-.534.052-.12.068-.184.074-.206a1.199 1.199 0 0 0-.18-.504A8.024 8.024 0 0 0 7.2 5.6l-.02-.024c-.27-.345-.517-.708-.74-1.086A3.066 3.066 0 0 1 6 3c0-.376.13-.736.238-.988.118-.276.268-.548.404-.776.159-.261.328-.516.506-.764l.05-.07A1.004 1.004 0 0 1 8.598.2 1.004 1.004 0 0 1 8.8 1.6zm6 0-.006.008-.028.038c-.146.2-.282.407-.408.62a4.003 4.003 0 0 0-.282.534c-.052.12-.068.184-.074.206v.008c.023.177.085.346.182.496.15.266.356.544.616.89l.02.024c.236.316.52.694.74 1.086.224.4.44.91.44 1.49 0 .376-.13.736-.238.988a6.142 6.142 0 0 1-.404.776 10.2 10.2 0 0 1-.506.764l-.036.05-.01.016-.004.004a1.004 1.004 0 0 1-1.4.202 1 1 0 0 1-.202-1.4l.006-.008.028-.038c.146-.2.282-.407.408-.62.107-.171.202-.349.282-.534.052-.12.068-.184.074-.206a1.199 1.199 0 0 0-.18-.504 8.024 8.024 0 0 0-.618-.89l-.02-.024c-.27-.345-.517-.708-.74-1.086A3.066 3.066 0 0 1 12 3c0-.376.13-.736.238-.988.118-.276.268-.548.404-.776.159-.261.328-.516.506-.764l.05-.07a1.004 1.004 0 0 1 1.4-.202 1 1 0 0 1 .202 1.4zm6 0-.006.008-.028.038c-.145.2-.282.407-.408.62a4.003 4.003 0 0 0-.282.534c-.052.12-.068.184-.074.206v.008c.023.177.085.346.182.496.15.266.356.544.616.89l.02.024c.236.316.52.694.74 1.086.224.4.44.91.44 1.49 0 .376-.13.736-.238.988a6.142 6.142 0 0 1-.404.776 9.875 9.875 0 0 1-.504.764l-.038.05-.01.016-.004.004a1.004 1.004 0 0 1-1.4.202 1 1 0 0 1-.202-1.4l.006-.008.028-.038c.145-.2.282-.407.408-.62.107-.171.202-.349.282-.534.052-.12.068-.184.074-.206a1.199 1.199 0 0 0-.18-.504 8.024 8.024 0 0 0-.618-.89l-.02-.024c-.27-.345-.517-.708-.74-1.086A3.066 3.066 0 0 1 18 3c0-.376.13-.736.238-.988.118-.276.268-.548.404-.776.159-.261.328-.516.506-.764l.05-.07a1.004 1.004 0 0 1 1.4-.202 1 1 0 0 1 .202 1.4z"/>
    </symbol>
    <symbol id="icon-automat" viewBox="0 0 32 32">
      <path d="M12 7a3.004 3.004 0 0 1 3-3h2a3.004 3.004 0 0 1 3 3v2a3.004 3.004 0 0 1-3 3v2h11a.997.997 0 0 1 1 1v2a.997.997 0 0 1-1 1 .997.997 0 0 1-1-1v-1H17v1a.997.997 0 0 1-1 1 .997.997 0 0 1-1-1v-1H5v1a.997.997 0 0 1-1 1 .997.997 0 0 1-1-1v-2a.997.997 0 0 1 1-1h11v-2a3.004 3.004 0 0 1-3-3V7zm5 3a.997.997 0 0 0 1-1V7a.997.997 0 0 0-1-1h-2a.997.997 0 0 0-1 1v2a.997.997 0 0 0 1 1h2zM0 23a3.004 3.004 0 0 1 3-3h2a3.004 3.004 0 0 1 3 3v2a3.004 3.004 0 0 1-3 3H3a3.004 3.004 0 0 1-3-3v-2zm3-1a.997.997 0 0 0-1 1v2a.997.997 0 0 0 1 1h2a.997.997 0 0 0 1-1v-2a.997.997 0 0 0-1-1H3zm9 1a3.004 3.004 0 0 1 3-3h2a3.004 3.004 0 0 1 3 3v2a3.004 3.004 0 0 1-3 3h-2a3.004 3.004 0 0 1-3-3v-2zm3-1a.997.997 0 0 0-1 1v2a.997.997 0 0 0 1 1h2a.997.997 0 0 0 1-1v-2a.997.997 0 0 0-1-1h-2zm9 1a3.004 3.004 0 0 1 3-3h2a3.004 3.004 0 0 1 3 3v2a3.004 3.004 0 0 1-3 3h-2a3.004 3.004 0 0 1-3-3v-2zm3-1a.997.997 0 0 0-1 1v2a.997.997 0 0 0 1 1h2a.997.997 0 0 0 1-1v-2a.997.997 0 0 0-1-1h-2z"/>
    </symbol>
    <symbol id="icon-AC" viewBox="0 0 32 32">
      <path d="M25 4a5 5 0 0 0-5 5 .997.997 0 0 1-1 1 .997.997 0 0 1-1-1 6.994 6.994 0 0 1 4.322-6.467 6.998 6.998 0 0 1 9.544 5.102 7.006 7.006 0 0 1-2.976 7.186 6.994 6.994 0 0 1-3.889 1.18h-24a.997.997 0 0 1-1-1 .997.997 0 0 1 1-1h24a5 5 0 0 0 0-10zM11 6a2 2 0 0 0-2 2 .997.997 0 0 1-1 1 .997.997 0 0 1-1-1 4.004 4.004 0 0 1 2.469-3.695A4 4 0 1 1 11 12H1a.997.997 0 0 1-1-1 .997.997 0 0 1 1-1h10a2 2 0 0 0 0-4zM0 19a.997.997 0 0 1 1-1h20.084a5.998 5.998 0 0 1 4.242 10.243 5.996 5.996 0 0 1-6.539 1.301 5.999 5.999 0 0 1-3.704-5.543.997.997 0 0 1 1-1 .997.997 0 0 1 1 1 4.004 4.004 0 0 0 2.469 3.695 4 4 0 1 0 1.531-7.695H.999a.997.997 0 0 1-1-1z"/>
    </symbol>
    <symbol id="icon-TV" viewBox="0 0 32 32">
      <path d="M0 7.5s0-4 4-4h24s4 0 4 4v12s0 4-4 4h-8c0 1.333.167 2.333.5 3H22a.997.997 0 0 1 1 1 .997.997 0 0 1-1 1H10a.997.997 0 0 1-1-1 .997.997 0 0 1 1-1h1.5c.333-.667.5-1.667.5-3H4s-4 0-4-4v-12zm2.796-1.71c-.22.153-.395.361-.508.604A3.013 3.013 0 0 0 2 7.52V19.5c0 .65.156 1.004.29 1.204.14.208.341.377.604.508.338.162.703.259 1.076.286l.05.002H28c.65 0 1.004-.156 1.204-.29.22-.153.395-.361.508-.604.162-.338.259-.703.286-1.076l.002-.05V7.5c0-.65-.156-1.004-.29-1.204a1.511 1.511 0 0 0-.604-.508A3.018 3.018 0 0 0 27.98 5.5H4c-.65 0-1.004.156-1.204.29z"/>
    </symbol>
     <symbol id="icon-ion_water-outline" viewBox="0 0 32 32" fill="none">
      <path d="M15.625 12.5C15.625 15.952 13.452 18.125 10 18.125C6.54805 18.125 4.375 15.952 4.375 12.5C4.375 8.79571 8.40742 3.79492 9.64414 2.34844C9.68815 2.29705 9.74276 2.25579 9.80422 2.2275C9.86568 2.19922 9.93254 2.18457 10.0002 2.18457C10.0679 2.18457 10.1347 2.19922 10.1962 2.2275C10.2576 2.25579 10.3122 2.29705 10.3562 2.34844C11.5926 3.79492 15.625 8.79571 15.625 12.5Z" stroke="#101828" stroke-width="1.25" stroke-miterlimit="10" />
  <path d="M13.4375 12.8125C13.4375 13.5584 13.1412 14.2738 12.6137 14.8012C12.0863 15.3287 11.3709 15.625 10.625 15.625" stroke="#101828" stroke-width="1.25" stroke-linecap="round" stroke-linejoin="round" />
     
    </symbol>
    <symbol id="icon-hugeicons_gas-stove" viewBox="0 0 32 32" fill="none" >
      <path d="M7 24.3334H12.3333M23 24.3454V24.3334M1.66667 7.00002C1.66667 2.58669 2.58667 1.66669 7 1.66669H23C27.4133 1.66669 28.3333 2.58669 28.3333 7.00002V23C28.3333 27.4134 27.4133 28.3334 23 28.3334H7C2.58667 28.3334 1.66667 27.4134 1.66667 23V7.00002Z" stroke="#101828" stroke-width="2.4" stroke-linecap="round" stroke-linejoin="round" />
  <path d="M15 17.6667C17.9455 17.6667 20.3333 15.2789 20.3333 12.3333C20.3333 9.38781 17.9455 7 15 7C12.0545 7 9.66667 9.38781 9.66667 12.3333C9.66667 15.2789 12.0545 17.6667 15 17.6667Z" stroke="#101828" stroke-width="2.4" stroke-linecap="round" stroke-linejoin="round" />
  <path d="M19.6667 12.3334H21.6667M15 17V19M10.3333 12.3334H8.33333M15 7.66669V5.66669" stroke="#101828" stroke-width="2.4" stroke-linecap="round" stroke-linejoin="round" />
    </symbol>
    <symbol id="icon-lucide_microwave" viewBox="0 0 32 32" fill="none">
       <path d="M26.6667 5.33331H5.33333C3.86057 5.33331 2.66666 6.52722 2.66666 7.99998V22.6666C2.66666 24.1394 3.86057 25.3333 5.33333 25.3333H26.6667C28.1394 25.3333 29.3333 24.1394 29.3333 22.6666V7.99998C29.3333 6.52722 28.1394 5.33331 26.6667 5.33331Z" stroke="#101828" stroke-width="2" stroke-linecap="round" stroke-linejoin="round" />
  <path d="M17.3333 10.6666H9.33333C8.59695 10.6666 8 11.2636 8 12V18.6666C8 19.403 8.59695 20 9.33333 20H17.3333C18.0697 20 18.6667 19.403 18.6667 18.6666V12C18.6667 11.2636 18.0697 10.6666 17.3333 10.6666Z" stroke="#101828" stroke-width="2" stroke-linecap="round" stroke-linejoin="round" />
  <path d="M24 10.6666V20M8 25.3333V28M24 25.3333V28" stroke="#101828" stroke-width="2" stroke-linecap="round" stroke-linejoin="round" />
    </symbol>
  </defs>
</svg>
